# xmcd
#
# Track frame offsets: 
#        150
#        12687
#        21155
#        31887
#        45645
#        61675
#        74922
#        87917
#        116692
#        133730
#        149347
#
# Disc length: 2330 seconds
#
# Revision: 10
# Processed by: cddbd v1.5.2PL0 Copyright (c) Steve Scherf et al.
# Submitted via: ExactAudioCopy v1.0b4
#
DISCID=9f09180b
DTITLE=David Bowie - LOW
DYEAR=1977
DGENRE=Rock
TTITLE0=Speed Of Life
TTITLE1=Breaking Glass
TTITLE2=What In The World
TTITLE3=Sound And Vision
TTITLE4=Always Crashing In The Same Car
TTITLE5=Be My Wife
TTITLE6=A New Career In A New Town
TTITLE7=Warszawa
TTITLE8=Art Decade
TTITLE9=Weeping Wall
TTITLE10=Subterraneans
EXTD=YEAR: 1977
EXTT0=
EXTT1=
EXTT2=
EXTT3=
EXTT4=
EXTT5=
EXTT6=
EXTT7=
EXTT8=
EXTT9=
EXTT10=
PLAYORDER=
